# xmcd CD database file
#
# Track frame offsets:
#	150
#	30085
#	49845
#	70896
#	104573
#	124471
#	142133
#	175772
#	205927
#
# Disc length: 3551 seconds
#
# Revision: 1
# Processed by: cddbd v1.5.1PL0 Copyright (c) Steve Scherf et al.
# Submitted via: CDex 1.50
#
DISCID=840ddd09
DTITLE=Los lonely boys - 01-09-04: Horseman night club FT Worh Tx [CD 1)
DYEAR=1900
DGENRE=
TTITLE0=Crazy dream
TTITLE1=Baby, you're going to see
TTITLE2=Nobody else
TTITLE3=Hollywood
TTITLE4=Tell me why
TTITLE5=I am the man to beat
TTITLE6=Superstition
TTITLE7=Velvet sky
TTITLE8=Onda
EXTD=
EXTT0=
EXTT1=
EXTT2=
EXTT3=
EXTT4=
EXTT5=
EXTT6=
EXTT7=
EXTT8=
PLAYORDER=
